<svg width="187.000000" height="121.000000" viewBox="0 0 187 121" fill="none" xmlns="http://www.w3.org/2000/svg" xmlns:xlink="http://www.w3.org/1999/xlink">
	<desc>
			Created with Pixso.
	</desc>
	<defs>
		<filter id="filter_13_2_dd" x="0.000000" y="0.000000" width="187.000000" height="121.000000" filterUnits="userSpaceOnUse" color-interpolation-filters="sRGB">
			<feFlood flood-opacity="0" result="BackgroundImageFix"/>
			<feColorMatrix in="SourceAlpha" type="matrix" values="0 0 0 0 0 0 0 0 0 0 0 0 0 0 0 0 0 0 127 0" result="hardAlpha"/>
			<feOffset dx="0" dy="4"/>
			<feGaussianBlur stdDeviation="1.33333"/>
			<feComposite in2="hardAlpha" operator="out" k2="-1" k3="1"/>
			<feColorMatrix type="matrix" values="0 0 0 0 0 0 0 0 0 0 0 0 0 0 0 0 0 0 0.25 0"/>
			<feBlend mode="normal" in2="BackgroundImageFix" result="effect_dropShadow_1"/>
			<feBlend mode="normal" in="SourceGraphic" in2="effect_dropShadow_1" result="shape"/>
		</filter>
	</defs>
	<g filter="url(#filter_13_2_dd)">
		<path id="矢量 4" d="M31.77 38.69L26.09 33.97L27.92 31.78L33.58 36.5L31.77 38.69ZM31.77 46.25L26.09 41.53L27.92 39.34L33.58 44.05L31.77 46.25ZM27.78 59.68L25.33 58.24L31.24 48.26L33.68 49.71L27.78 59.68ZM57.33 50.39L34.83 50.39L34.83 47.54L39.37 47.54L39.37 39.26L35.62 39.26L35.62 36.42L39.37 36.42L39.37 31.82L42.18 31.82L42.18 36.42L50.06 36.42L50.06 31.82L52.87 31.82L52.87 36.42L56.58 36.42L56.58 39.26L52.87 39.26L52.87 47.54L57.33 47.54L57.33 50.39ZM42.18 47.54L50.06 47.54L50.06 39.26L42.18 39.26L42.18 47.54ZM42.11 52.4C42.09 52.46 41.92 52.72 41.62 53.19C41.32 53.65 40.91 54.24 40.38 54.96C39.85 55.68 39.22 56.47 38.47 57.32C37.73 58.17 36.91 59.01 36.02 59.82L34.11 57.74C34.93 56.99 35.68 56.22 36.36 55.43C37.05 54.64 37.63 53.91 38.11 53.26C38.59 52.59 38.97 52.05 39.25 51.62C39.52 51.19 39.66 50.97 39.66 50.97L42.11 52.4ZM54.85 59.79L49.52 52.84L51.75 51.11L57.09 58.06L54.85 59.79Z" fill="#000000" fill-opacity="1.000000" fill-rule="nonzero"/>
		<path id="矢量 4" d="M62.84 59.14L61.51 58.67C61.51 58.65 61.63 58.24 61.89 57.45C62.14 56.66 62.41 55.62 62.71 54.34C63.02 53.05 63.29 51.6 63.53 50C63.77 48.39 63.89 46.76 63.89 45.1L63.89 33.8L76.09 33.8L75.37 32.5L77.86 31.17L79.3 33.8L92.61 33.8L92.61 36.64L83.51 36.64L83.51 39.48L88.47 39.48L88.47 38.69L91.29 38.69L91.29 44.34C91.29 45.26 90.97 46.03 90.34 46.66C89.72 47.28 88.96 47.59 88.04 47.59L66.62 47.59C66.51 49.12 66.32 50.6 66.07 52.03C65.82 53.46 65.55 54.71 65.27 55.8C64.99 56.9 64.75 57.79 64.53 58.47C64.32 59.15 64.2 59.53 64.17 59.61L62.84 59.14ZM72.71 42.29L66.73 42.29L66.73 44.74L72.71 44.74L72.71 42.29ZM75.52 44.74L80.66 44.74L80.66 42.29L75.52 42.29L75.52 44.74ZM83.51 42.29L83.51 44.74L88.04 44.74C88.16 44.74 88.27 44.7 88.35 44.63C88.43 44.56 88.47 44.46 88.47 44.34L88.47 42.29L83.51 42.29ZM80.66 36.64L75.52 36.64L75.52 39.48L80.66 39.48L80.66 36.64ZM66.73 36.64L66.73 39.48L72.71 39.48L72.71 36.64L66.73 36.64ZM70.44 49.02L70.44 50.79L78.39 50.79L78.39 53.63L70.44 53.63L70.44 56.3L78.68 55.15L79.08 57.95L66.76 59.65L66.37 56.87L67.6 56.69L67.6 49.02L70.44 49.02ZM83.4 48.77L83.4 51.01L91.46 49.41L92.01 52.19L83.4 53.88L83.4 56.83L89.52 56.83C89.78 56.83 89.91 56.7 89.91 56.44L89.91 54.42L92.76 54.42L92.76 56.44C92.76 57.33 92.45 58.09 91.82 58.72C91.2 59.36 90.43 59.68 89.52 59.68L80.55 59.68L80.55 48.77L83.4 48.77Z" fill="#000000" fill-opacity="1.000000" fill-rule="nonzero"/>
		<path id="矢量 4" d="M129.66 52.37L125.02 53.16L125.02 59.68L122.21 59.68L122.21 53.67L112.27 55.43L111.76 52.62L122.21 50.79L122.21 32.03L125.02 32.03L125.02 50.32L129.19 49.56L129.66 52.37ZM117.85 49.41L111.26 44.63L112.96 42.33L119.51 47.11L117.85 49.41ZM119.8 42.69L113.24 37.9L114.9 35.6L121.48 40.38L119.8 42.69ZM105.9 38.8L111.12 38.8L111.12 41.65L105.9 41.65L105.9 59.82L103.05 59.82L103.05 41.65L102.73 41.65C102.68 42.41 102.6 43.46 102.47 44.77C102.36 46.09 102.19 47.57 101.97 49.2C101.76 50.83 101.5 52.56 101.2 54.37C100.9 56.18 100.53 57.98 100.1 59.75L97.37 59.1C97.75 57.45 98.09 55.75 98.38 54.01C98.66 52.27 98.91 50.62 99.11 49.06C99.31 47.5 99.47 46.07 99.59 44.77C99.71 43.48 99.81 42.44 99.89 41.65L97.8 41.65L97.8 38.8L103.05 38.8L103.05 35.48L98.3 35.48L98.3 32.68L104.89 32.68C105.28 32.68 105.72 32.65 106.23 32.59C106.73 32.53 107.24 32.45 107.76 32.36C108.27 32.26 108.75 32.17 109.19 32.07C109.63 31.97 109.98 31.9 110.22 31.85L110.87 34.59C110.84 34.59 110.67 34.63 110.34 34.72C110.02 34.8 109.62 34.88 109.14 34.97C108.66 35.05 108.13 35.14 107.55 35.24C106.98 35.33 106.43 35.4 105.9 35.45L105.9 38.8ZM109.14 43.37L111.09 59.25L108.27 59.61L106.33 43.73L109.14 43.37Z" fill="#000000" fill-opacity="1.000000" fill-rule="nonzero"/>
		<path id="矢量 4" d="M141.18 31.82L141.18 35.52L144.92 35.52L144.92 38.33L141.18 38.33L141.18 47.47L144.53 46.18L145.53 48.84L141.18 50.5L141.18 56.44C141.18 57.35 140.87 58.12 140.24 58.74C139.62 59.37 138.85 59.68 137.94 59.68L134.12 59.68L134.12 56.83L137.94 56.83C138.22 56.83 138.37 56.7 138.37 56.44L138.37 51.58L134.45 53.09L133.44 50.43L138.37 48.55L138.37 38.33L134.12 38.33L134.12 35.52L138.37 35.52L138.37 31.82L141.18 31.82ZM144.6 57.05C146.28 56.36 147.81 55.63 149.19 54.89C150.57 54.15 151.84 53.39 152.98 52.62L146.87 48.7L148.38 46.32L155.44 50.82C157.19 49.41 158.54 48.13 159.48 46.99C160.43 45.85 161.03 45.07 161.3 44.67L161.3 44.41L146.9 44.41L146.9 41.61L154.07 41.61L154.07 37.58L145.86 37.58L145.86 34.76L154.07 34.76L154.07 31.82L156.91 31.82L156.91 34.76L165.12 34.76L165.12 37.58L156.91 37.58L156.91 41.61L161.3 41.61L161.3 41.03L164.15 41.03L164.15 45.46L163.97 45.79C163.94 45.83 163.81 46.04 163.57 46.42C163.33 46.79 162.97 47.27 162.49 47.86C162.01 48.45 161.39 49.13 160.64 49.92C159.88 50.72 158.99 51.54 157.96 52.4L165.69 57.34L164.18 59.72L155.58 54.28C154.28 55.19 152.82 56.11 151.18 57.03C149.55 57.95 147.72 58.84 145.68 59.68L144.6 57.05Z" fill="#000000" fill-opacity="1.000000" fill-rule="nonzero"/>
		<path id="矢量 4" d="M29.23 87.29L27.98 87.29L27.98 77.62L27.5 77.62L27.5 76.36L29.23 76.36L29.23 87.29ZM35.58 87.29L34.33 87.29L34.33 76.36L35.58 76.36L35.58 87.29ZM34.96 82.23L28.1 82.23L28.1 80.97L34.96 80.97L34.96 82.23Z" fill="#000000" fill-opacity="1.000000" fill-rule="nonzero"/>
		<path id="矢量 4" d="M44.82 87.33L37.98 87.33L37.98 77.64L37.66 77.64L37.66 76.37L39.23 76.37L39.23 86.09L44.82 86.09L44.82 87.33Z" fill="#000000" fill-opacity="1.000000" fill-rule="nonzero"/>
		<path id="矢量 4" d="M66.14 87.19L64.88 87.19L64.88 76.89L66.14 76.89L66.14 87.19ZM69.66 77.51L61.36 77.51L61.36 76.26L69.66 76.26L69.66 77.51Z" fill="#000000" fill-opacity="1.000000" fill-rule="nonzero"/>
		<path id="矢量 4" d="M79.58 87.33L72.06 87.33L72.06 77.03L73.31 77.03L73.31 86.09L79.58 86.09L79.58 87.33ZM78.64 82.46L72.18 82.46L72.18 81.19L78.64 81.19L78.64 82.46ZM79.47 77.57L71.65 77.57L71.65 76.31L79.47 76.31L79.47 77.57Z" fill="#000000" fill-opacity="1.000000" fill-rule="nonzero"/>
		<path id="矢量 4" d="M86.32 87.1C85.68 87.1 85.08 86.95 84.51 86.67C83.94 86.39 83.45 86 83.03 85.5C82.61 85.01 82.28 84.43 82.03 83.78C81.78 83.12 81.66 82.41 81.66 81.66C81.66 80.91 81.78 80.2 82.03 79.54C82.28 78.88 82.61 78.3 83.03 77.82C83.45 77.33 83.94 76.94 84.51 76.65C85.08 76.36 85.68 76.21 86.32 76.21C87.05 76.21 87.75 76.4 88.39 76.78C89.04 77.15 89.58 77.68 90.03 78.37L88.97 79.06C88.65 78.55 88.26 78.16 87.8 77.89C87.33 77.62 86.84 77.48 86.32 77.48C85.85 77.48 85.41 77.59 85 77.81C84.59 78.03 84.23 78.33 83.92 78.71C83.61 79.08 83.36 79.53 83.18 80.03C83 80.54 82.91 81.08 82.91 81.66C82.91 82.23 83 82.77 83.18 83.28C83.36 83.79 83.61 84.23 83.92 84.62C84.23 85 84.59 85.3 85 85.52C85.41 85.74 85.85 85.85 86.32 85.85C86.84 85.85 87.33 85.71 87.8 85.43C88.26 85.15 88.65 84.76 88.97 84.25L90.03 84.94C89.58 85.63 89.04 86.16 88.39 86.53C87.75 86.91 87.05 87.1 86.32 87.1Z" fill="#000000" fill-opacity="1.000000" fill-rule="nonzero"/>
		<path id="矢量 4" d="M93.76 87.29L92.51 87.29L92.51 77.62L92.03 77.62L92.03 76.36L93.76 76.36L93.76 87.29ZM100.11 87.29L98.86 87.29L98.86 76.36L100.11 76.36L100.11 87.29ZM99.49 82.23L92.62 82.23L92.62 80.97L99.49 80.97L99.49 82.23Z" fill="#000000" fill-opacity="1.000000" fill-rule="nonzero"/>
		<path id="矢量 4" d="M103.95 87.27L102.69 87.27L102.69 76.89L103.95 76.89L103.95 87.27ZM110.25 87.26L109.09 87.26L103.87 77.51L102.34 77.51L102.34 76.26L104.63 76.26L108.99 84.41L108.99 76.14L110.25 76.14L110.25 87.26Z" fill="#000000" fill-opacity="1.000000" fill-rule="nonzero"/>
		<path id="矢量 4" d="M116.67 87.14C116.06 87.14 115.49 87 114.95 86.72C114.41 86.44 113.93 86.02 113.52 85.48C113.12 84.97 112.82 84.39 112.62 83.75C112.41 83.1 112.3 82.42 112.3 81.7C112.3 80.99 112.41 80.31 112.62 79.66C112.82 79 113.12 78.42 113.52 77.91C113.93 77.37 114.41 76.96 114.95 76.67C115.49 76.39 116.06 76.25 116.67 76.25C117.27 76.25 117.84 76.39 118.37 76.67C118.91 76.96 119.39 77.37 119.81 77.91C120.2 78.42 120.5 79 120.71 79.66C120.92 80.31 121.02 80.99 121.02 81.7C121.02 82.42 120.92 83.1 120.71 83.75C120.5 84.39 120.2 84.97 119.81 85.48C119.39 86.02 118.91 86.44 118.37 86.72C117.84 87 117.27 87.14 116.67 87.14ZM116.67 77.51C116.25 77.51 115.84 77.62 115.46 77.84C115.09 78.06 114.75 78.36 114.47 78.74C114.19 79.11 113.97 79.56 113.8 80.07C113.63 80.58 113.55 81.13 113.55 81.7C113.55 82.28 113.63 82.82 113.8 83.33C113.97 83.83 114.19 84.28 114.47 84.66C114.75 85.03 115.09 85.33 115.46 85.55C115.84 85.77 116.25 85.88 116.67 85.88C117.1 85.88 117.5 85.77 117.88 85.55C118.26 85.33 118.59 85.03 118.86 84.66C119.14 84.28 119.36 83.83 119.53 83.33C119.69 82.82 119.78 82.28 119.78 81.7C119.78 81.13 119.69 80.58 119.53 80.07C119.36 79.56 119.14 79.11 118.86 78.74C118.59 78.36 118.26 78.06 117.88 77.84C117.5 77.62 117.1 77.51 116.67 77.51Z" fill="#000000" fill-opacity="1.000000" fill-rule="nonzero"/>
		<path id="矢量 4" d="M130.19 87.33L123.36 87.33L123.36 77.64L123.04 77.64L123.04 76.37L124.61 76.37L124.61 86.09L130.19 86.09L130.19 87.33Z" fill="#000000" fill-opacity="1.000000" fill-rule="nonzero"/>
		<path id="矢量 4" d="M136.72 87.14C136.11 87.14 135.54 87 135 86.72C134.46 86.44 133.98 86.02 133.57 85.48C133.17 84.97 132.87 84.39 132.66 83.75C132.45 83.1 132.35 82.42 132.35 81.7C132.35 80.99 132.45 80.31 132.66 79.66C132.87 79 133.17 78.42 133.57 77.91C133.98 77.37 134.46 76.96 135 76.67C135.54 76.39 136.11 76.25 136.72 76.25C137.32 76.25 137.88 76.39 138.42 76.67C138.96 76.96 139.44 77.37 139.85 77.91C140.25 78.42 140.55 79 140.76 79.66C140.97 80.31 141.07 80.99 141.07 81.7C141.07 82.42 140.97 83.1 140.76 83.75C140.55 84.39 140.25 84.97 139.85 85.48C139.44 86.02 138.96 86.44 138.42 86.72C137.88 87 137.32 87.14 136.72 87.14ZM136.72 77.51C136.29 77.51 135.89 77.62 135.51 77.84C135.13 78.06 134.8 78.36 134.52 78.74C134.24 79.11 134.01 79.56 133.85 80.07C133.68 80.58 133.6 81.13 133.6 81.7C133.6 82.28 133.68 82.82 133.85 83.33C134.01 83.83 134.24 84.28 134.52 84.66C134.8 85.03 135.13 85.33 135.51 85.55C135.89 85.77 136.29 85.88 136.72 85.88C137.14 85.88 137.55 85.77 137.92 85.55C138.31 85.33 138.63 85.03 138.91 84.66C139.19 84.28 139.41 83.83 139.57 83.33C139.74 82.82 139.82 82.28 139.82 81.7C139.82 81.13 139.74 80.58 139.57 80.07C139.41 79.56 139.19 79.11 138.91 78.74C138.63 78.36 138.31 78.06 137.92 77.84C137.55 77.62 137.14 77.51 136.72 77.51Z" fill="#000000" fill-opacity="1.000000" fill-rule="nonzero"/>
		<path id="矢量 4" d="M147.65 87.1C147.01 87.1 146.41 86.95 145.84 86.67C145.27 86.39 144.78 86 144.36 85.5C143.94 85.01 143.6 84.43 143.36 83.78C143.11 83.12 142.99 82.41 142.99 81.66C142.99 80.91 143.11 80.2 143.36 79.54C143.6 78.88 143.94 78.3 144.36 77.82C144.78 77.33 145.27 76.94 145.84 76.65C146.41 76.36 147.01 76.21 147.65 76.21C148.39 76.21 149.09 76.4 149.74 76.78C150.38 77.15 150.93 77.68 151.38 78.37L150.32 79.06C149.99 78.55 149.59 78.16 149.13 77.89C148.68 77.62 148.18 77.48 147.65 77.48C147.18 77.48 146.74 77.59 146.33 77.81C145.92 78.03 145.56 78.33 145.25 78.71C144.94 79.08 144.69 79.53 144.52 80.03C144.34 80.54 144.25 81.08 144.25 81.66C144.25 82.23 144.34 82.77 144.52 83.28C144.69 83.79 144.94 84.23 145.25 84.62C145.56 85 145.92 85.3 146.33 85.52C146.74 85.74 147.18 85.85 147.65 85.85C148.15 85.85 148.62 85.72 149.06 85.47C149.51 85.22 149.89 84.87 150.22 84.41L150.22 82.28L146.7 82.28L146.7 81.03L151.47 81.03L151.47 84.78L151.38 84.94C150.93 85.63 150.38 86.16 149.74 86.53C149.09 86.91 148.39 87.1 147.65 87.1Z" fill="#000000" fill-opacity="1.000000" fill-rule="nonzero"/>
		<path id="矢量 4" d="M158.27 87.19L157.01 87.19L157.01 82.5L157.02 82.5L153.58 77.51L153.15 77.51L153.15 76.26L154.24 76.26L157.63 81.21L161.04 76.26L162.14 76.26L162.14 77.51L161.7 77.51L158.27 82.5L158.27 87.19Z" fill="#000000" fill-opacity="1.000000" fill-rule="nonzero"/>
		<path id="矢量 4" d="M7.5 83.94L7.5 108L51.37 108L51.37 112.5L4.5 112.5L4.5 83.94L7.5 83.94ZM182.5 84.5L182.5 112C182.5 112 172 112 161.5 112C151 112 140.5 112 140.5 112L140.5 108L178.5 108L178.5 84.5L182.5 84.5ZM51.37 0.5L50.06 4L7.5 4L7.5 31.78L4.5 31.83L4.5 0.5L51.37 0.5ZM182.5 0.5L182.5 19.5L182.5 31.83L179 31.83L179 4L139.21 4L139.21 0.5L182.5 0.5Z" fill="#444444" fill-opacity="1.000000" fill-rule="evenodd"/>
		<path id="矢量 4" d="M26.09 33.97L27.92 31.78L33.58 36.5L31.77 38.69L26.09 33.97ZM26.09 41.53L27.92 39.34L33.58 44.05L31.77 46.25L26.09 41.53ZM25.33 58.24L31.24 48.26L33.68 49.71L27.78 59.68L25.33 58.24ZM34.83 50.39L34.83 47.54L39.37 47.54L39.37 39.26L35.62 39.26L35.62 36.42L39.37 36.42L39.37 31.82L42.18 31.82L42.18 36.42L50.06 36.42L50.06 31.82L52.87 31.82L52.87 36.42L56.58 36.42L56.58 39.26L52.87 39.26L52.87 47.54L57.33 47.54L57.33 50.39L34.83 50.39ZM50.06 47.54L50.06 39.26L42.18 39.26L42.18 47.54L50.06 47.54ZM41.62 53.19C41.32 53.65 40.91 54.24 40.38 54.96C39.85 55.68 39.22 56.47 38.47 57.32C37.73 58.17 36.91 59.01 36.02 59.82L34.11 57.74C34.93 56.99 35.68 56.22 36.36 55.43C37.05 54.64 37.63 53.91 38.11 53.26C38.59 52.59 38.97 52.05 39.25 51.62C39.52 51.19 39.66 50.97 39.66 50.97L42.11 52.4C42.09 52.46 41.92 52.72 41.62 53.19ZM49.52 52.84L51.75 51.11L57.09 58.06L54.85 59.79L49.52 52.84ZM61.51 58.67C61.51 58.65 61.63 58.24 61.89 57.45C62.14 56.66 62.41 55.62 62.71 54.34C63.02 53.05 63.29 51.6 63.53 50C63.77 48.39 63.89 46.76 63.89 45.1L63.89 33.8L76.09 33.8L75.37 32.5L77.86 31.17L79.3 33.8L92.61 33.8L92.61 36.64L83.51 36.64L83.51 39.48L88.47 39.48L88.47 38.69L91.29 38.69L91.29 44.34C91.29 45.26 90.97 46.03 90.34 46.66C89.72 47.28 88.96 47.59 88.04 47.59L66.62 47.59C66.51 49.12 66.32 50.6 66.07 52.03C65.82 53.46 65.55 54.71 65.27 55.8C64.99 56.9 64.75 57.79 64.53 58.47C64.32 59.15 64.2 59.53 64.17 59.61L62.84 59.14L61.51 58.67ZM66.73 42.29L66.73 44.74L72.71 44.74L72.71 42.29L66.73 42.29ZM80.66 44.74L80.66 42.29L75.52 42.29L75.52 44.74L80.66 44.74ZM83.51 44.74L88.04 44.74C88.16 44.74 88.27 44.7 88.35 44.63C88.43 44.56 88.47 44.46 88.47 44.34L88.47 42.29L83.51 42.29L83.51 44.74ZM75.52 36.64L75.52 39.48L80.66 39.48L80.66 36.64L75.52 36.64ZM66.73 39.48L72.71 39.48L72.71 36.64L66.73 36.64L66.73 39.48ZM70.44 50.79L78.39 50.79L78.39 53.63L70.44 53.63L70.44 56.3L78.68 55.15L79.08 57.95L66.76 59.65L66.37 56.87L67.6 56.69L67.6 49.02L70.44 49.02L70.44 50.79ZM83.4 51.01L91.46 49.41L92.01 52.19L83.4 53.88L83.4 56.83L89.52 56.83C89.78 56.83 89.91 56.7 89.91 56.44L89.91 54.42L92.76 54.42L92.76 56.44C92.76 57.33 92.45 58.09 91.82 58.72C91.2 59.36 90.43 59.68 89.52 59.68L80.55 59.68L80.55 48.77L83.4 48.77L83.4 51.01ZM125.02 53.16L125.02 59.68L122.21 59.68L122.21 53.67L112.27 55.43L111.76 52.62L122.21 50.79L122.21 32.03L125.02 32.03L125.02 50.32L129.19 49.56L129.66 52.37L125.02 53.16ZM111.26 44.63L112.96 42.33L119.51 47.11L117.85 49.41L111.26 44.63ZM113.24 37.9L114.9 35.6L121.48 40.38L119.8 42.69L113.24 37.9ZM111.12 38.8L111.12 41.65L105.9 41.65L105.9 59.82L103.05 59.82L103.05 41.65L102.73 41.65C102.68 42.41 102.6 43.46 102.47 44.77C102.36 46.09 102.19 47.57 101.97 49.2C101.76 50.83 101.5 52.56 101.2 54.37C100.9 56.18 100.53 57.98 100.1 59.75L97.37 59.1C97.75 57.45 98.09 55.75 98.38 54.01C98.66 52.27 98.91 50.62 99.11 49.06C99.31 47.5 99.47 46.07 99.59 44.77C99.71 43.48 99.81 42.44 99.89 41.65L97.8 41.65L97.8 38.8L103.05 38.8L103.05 35.48L98.3 35.48L98.3 32.68L104.89 32.68C105.28 32.68 105.72 32.65 106.23 32.59C106.73 32.53 107.24 32.45 107.76 32.36C108.27 32.26 108.75 32.17 109.19 32.07C109.63 31.97 109.98 31.9 110.22 31.85L110.87 34.59C110.84 34.59 110.67 34.63 110.34 34.72C110.02 34.8 109.62 34.88 109.14 34.97C108.66 35.05 108.13 35.14 107.55 35.24C106.98 35.33 106.43 35.4 105.9 35.45L105.9 38.8L111.12 38.8ZM111.09 59.25L108.27 59.61L106.33 43.73L109.14 43.37L111.09 59.25ZM141.18 35.52L144.92 35.52L144.92 38.33L141.18 38.33L141.18 47.47L144.53 46.18L145.53 48.84L141.18 50.5L141.18 56.44C141.18 57.35 140.87 58.12 140.24 58.74C139.62 59.37 138.85 59.68 137.94 59.68L134.12 59.68L134.12 56.83L137.94 56.83C138.22 56.83 138.37 56.7 138.37 56.44L138.37 51.58L134.45 53.09L133.44 50.43L138.37 48.55L138.37 38.33L134.12 38.33L134.12 35.52L138.37 35.52L138.37 31.82L141.18 31.82L141.18 35.52ZM149.19 54.89C150.57 54.15 151.84 53.39 152.98 52.62L146.87 48.7L148.38 46.32L155.44 50.82C157.19 49.41 158.54 48.13 159.48 46.99C160.43 45.85 161.03 45.07 161.3 44.67L161.3 44.41L146.9 44.41L146.9 41.61L154.07 41.61L154.07 37.58L145.86 37.58L145.86 34.76L154.07 34.76L154.07 31.82L156.91 31.82L156.91 34.76L165.12 34.76L165.12 37.58L156.91 37.58L156.91 41.61L161.3 41.61L161.3 41.03L164.15 41.03L164.15 45.46L163.97 45.79C163.94 45.83 163.81 46.04 163.57 46.42C163.33 46.79 162.97 47.27 162.49 47.86C162.01 48.45 161.39 49.13 160.64 49.92C159.88 50.72 158.99 51.54 157.96 52.4L165.69 57.34L164.18 59.72L155.58 54.28C154.28 55.19 152.82 56.11 151.18 57.03C149.55 57.95 147.72 58.84 145.68 59.68L144.6 57.05C146.28 56.36 147.81 55.63 149.19 54.89ZM27.98 87.29L27.98 77.62L27.5 77.62L27.5 76.36L29.23 76.36L29.23 87.29L27.98 87.29ZM34.33 87.29L34.33 76.36L35.58 76.36L35.58 87.29L34.33 87.29ZM28.1 82.23L28.1 80.97L34.96 80.97L34.96 82.23L28.1 82.23ZM37.98 87.33L37.98 77.64L37.66 77.64L37.66 76.37L39.23 76.37L39.23 86.09L44.82 86.09L44.82 87.33L37.98 87.33ZM64.88 87.19L64.88 76.89L66.14 76.89L66.14 87.19L64.88 87.19ZM61.36 77.51L61.36 76.26L69.66 76.26L69.66 77.51L61.36 77.51ZM72.06 87.33L72.06 77.03L73.31 77.03L73.31 86.09L79.58 86.09L79.58 87.33L72.06 87.33ZM72.18 82.46L72.18 81.19L78.64 81.19L78.64 82.46L72.18 82.46ZM71.65 77.57L71.65 76.31L79.47 76.31L79.47 77.57L71.65 77.57ZM84.51 86.67C83.94 86.39 83.45 86 83.03 85.5C82.61 85.01 82.28 84.43 82.03 83.78C81.78 83.12 81.66 82.41 81.66 81.66C81.66 80.91 81.78 80.2 82.03 79.54C82.28 78.88 82.61 78.3 83.03 77.82C83.45 77.33 83.94 76.94 84.51 76.65C85.08 76.36 85.68 76.21 86.32 76.21C87.05 76.21 87.75 76.4 88.39 76.78C89.04 77.15 89.58 77.68 90.03 78.37L88.97 79.06C88.65 78.55 88.26 78.16 87.8 77.89C87.33 77.62 86.84 77.48 86.32 77.48C85.85 77.48 85.41 77.59 85 77.81C84.59 78.03 84.23 78.33 83.92 78.71C83.61 79.08 83.36 79.53 83.18 80.03C83 80.54 82.91 81.08 82.91 81.66C82.91 82.23 83 82.77 83.18 83.28C83.36 83.79 83.61 84.23 83.92 84.62C84.23 85 84.59 85.3 85 85.52C85.41 85.74 85.85 85.85 86.32 85.85C86.84 85.85 87.33 85.71 87.8 85.43C88.26 85.15 88.65 84.76 88.97 84.25L90.03 84.94C89.58 85.63 89.04 86.16 88.39 86.53C87.75 86.91 87.05 87.1 86.32 87.1C85.68 87.1 85.08 86.95 84.51 86.67ZM92.51 87.29L92.51 77.62L92.03 77.62L92.03 76.36L93.76 76.36L93.76 87.29L92.51 87.29ZM98.86 87.29L98.86 76.36L100.11 76.36L100.11 87.29L98.86 87.29ZM92.62 82.23L92.62 80.97L99.49 80.97L99.49 82.23L92.62 82.23ZM102.69 87.27L102.69 76.89L103.95 76.89L103.95 87.27L102.69 87.27ZM109.09 87.26L103.87 77.51L102.34 77.51L102.34 76.26L104.63 76.26L108.99 84.41L108.99 76.14L110.25 76.14L110.25 87.26L109.09 87.26ZM114.95 86.72C114.41 86.44 113.93 86.02 113.52 85.48C113.12 84.97 112.82 84.39 112.62 83.75C112.41 83.1 112.3 82.42 112.3 81.7C112.3 80.99 112.41 80.31 112.62 79.66C112.82 79 113.12 78.42 113.52 77.91C113.93 77.37 114.41 76.96 114.95 76.67C115.49 76.39 116.06 76.25 116.67 76.25C117.27 76.25 117.84 76.39 118.37 76.67C118.91 76.96 119.39 77.37 119.81 77.91C120.2 78.42 120.5 79 120.71 79.66C120.92 80.31 121.02 80.99 121.02 81.7C121.02 82.42 120.92 83.1 120.71 83.75C120.5 84.39 120.2 84.97 119.81 85.48C119.39 86.02 118.91 86.44 118.37 86.72C117.84 87 117.27 87.14 116.67 87.14C116.06 87.14 115.49 87 114.95 86.72ZM115.46 77.84C115.09 78.06 114.75 78.36 114.47 78.74C114.19 79.11 113.97 79.56 113.8 80.07C113.63 80.58 113.55 81.13 113.55 81.7C113.55 82.28 113.63 82.82 113.8 83.33C113.97 83.83 114.19 84.28 114.47 84.66C114.75 85.03 115.09 85.33 115.46 85.55C115.84 85.77 116.25 85.88 116.67 85.88C117.1 85.88 117.5 85.77 117.88 85.55C118.26 85.33 118.59 85.03 118.86 84.66C119.14 84.28 119.36 83.83 119.53 83.33C119.69 82.82 119.78 82.28 119.78 81.7C119.78 81.13 119.69 80.58 119.53 80.07C119.36 79.56 119.14 79.11 118.86 78.74C118.59 78.36 118.26 78.06 117.88 77.84C117.5 77.62 117.1 77.51 116.67 77.51C116.25 77.51 115.84 77.62 115.46 77.84ZM123.36 87.33L123.36 77.64L123.04 77.64L123.04 76.37L124.61 76.37L124.61 86.09L130.19 86.09L130.19 87.33L123.36 87.33ZM135 86.72C134.46 86.44 133.98 86.02 133.57 85.48C133.17 84.97 132.87 84.39 132.66 83.75C132.45 83.1 132.35 82.42 132.35 81.7C132.35 80.99 132.45 80.31 132.66 79.66C132.87 79 133.17 78.42 133.57 77.91C133.98 77.37 134.46 76.96 135 76.67C135.54 76.39 136.11 76.25 136.72 76.25C137.32 76.25 137.88 76.39 138.42 76.67C138.96 76.96 139.44 77.37 139.85 77.91C140.25 78.42 140.55 79 140.76 79.66C140.97 80.31 141.07 80.99 141.07 81.7C141.07 82.42 140.97 83.1 140.76 83.75C140.55 84.39 140.25 84.97 139.85 85.48C139.44 86.02 138.96 86.44 138.42 86.72C137.88 87 137.32 87.14 136.72 87.14C136.11 87.14 135.54 87 135 86.72ZM135.51 77.84C135.13 78.06 134.8 78.36 134.52 78.74C134.24 79.11 134.01 79.56 133.85 80.07C133.68 80.58 133.6 81.13 133.6 81.7C133.6 82.28 133.68 82.82 133.85 83.33C134.01 83.83 134.24 84.28 134.52 84.66C134.8 85.03 135.13 85.33 135.51 85.55C135.89 85.77 136.29 85.88 136.72 85.88C137.14 85.88 137.55 85.77 137.92 85.55C138.31 85.33 138.63 85.03 138.91 84.66C139.19 84.28 139.41 83.83 139.57 83.33C139.74 82.82 139.82 82.28 139.82 81.7C139.82 81.13 139.74 80.58 139.57 80.07C139.41 79.56 139.19 79.11 138.91 78.74C138.63 78.36 138.31 78.06 137.92 77.84C137.55 77.62 137.14 77.51 136.72 77.51C136.29 77.51 135.89 77.62 135.51 77.84ZM145.84 86.67C145.27 86.39 144.78 86 144.36 85.5C143.94 85.01 143.6 84.43 143.36 83.78C143.11 83.12 142.99 82.41 142.99 81.66C142.99 80.91 143.11 80.2 143.36 79.54C143.6 78.88 143.94 78.3 144.36 77.82C144.78 77.33 145.27 76.94 145.84 76.65C146.41 76.36 147.01 76.21 147.65 76.21C148.39 76.21 149.09 76.4 149.74 76.78C150.38 77.15 150.93 77.68 151.38 78.37L150.32 79.06C149.99 78.55 149.59 78.16 149.13 77.89C148.68 77.62 148.18 77.48 147.65 77.48C147.18 77.48 146.74 77.59 146.33 77.81C145.92 78.03 145.56 78.33 145.25 78.71C144.94 79.08 144.69 79.53 144.52 80.03C144.34 80.54 144.25 81.08 144.25 81.66C144.25 82.23 144.34 82.77 144.52 83.28C144.69 83.79 144.94 84.23 145.25 84.62C145.56 85 145.92 85.3 146.33 85.52C146.74 85.74 147.18 85.85 147.65 85.85C148.15 85.85 148.62 85.72 149.06 85.47C149.51 85.22 149.89 84.87 150.22 84.41L150.22 82.28L146.7 82.28L146.7 81.03L151.47 81.03L151.47 84.78L151.38 84.94C150.93 85.63 150.38 86.16 149.74 86.53C149.09 86.91 148.39 87.1 147.65 87.1C147.01 87.1 146.41 86.95 145.84 86.67ZM157.01 87.19L157.01 82.5L157.02 82.5L153.58 77.51L153.15 77.51L153.15 76.26L154.24 76.26L157.63 81.21L161.04 76.26L162.14 76.26L162.14 77.51L161.7 77.51L158.27 82.5L158.27 87.19L157.01 87.19ZM7.5 108L51.37 108L51.37 112.5L4.5 112.5L4.5 83.94L7.5 83.94L7.5 108ZM182.5 112C182.5 112 172 112 161.5 112C151 112 140.5 112 140.5 112L140.5 108L178.5 108L178.5 84.5L182.5 84.5L182.5 112ZM91.7 38.09L91.7 38.09ZM50.06 4L7.5 4L7.5 31.78L4.5 31.83L4.5 0.5L51.37 0.5L50.06 4ZM179 31.83L179 4L139.21 4L139.21 0.5L182.5 0.5L182.5 19.5L182.5 31.83L179 31.83Z" stroke="#000000" stroke-opacity="1.000000" stroke-width="1.000000"/>
	</g>
</svg>
